<mxfile host="app.diagrams.net" agent="Mozilla/5.0 (Windows NT 10.0; Win64; x64) AppleWebKit/537.36 (KHTML, like Gecko) Chrome/132.0.0.0 Safari/537.36 OPR/117.0.0.0" version="26.2.14">
  <diagram name="Page-1" id="e7e014a7-5840-1c2e-5031-d8a46d1fe8dd">
    <mxGraphModel dx="1039" dy="623" grid="0" gridSize="10" guides="1" tooltips="1" connect="1" arrows="1" fold="1" page="1" pageScale="1" pageWidth="1169" pageHeight="826" background="none" math="0" shadow="0">
      <root>
        <mxCell id="0" />
        <mxCell id="1" parent="0" />
        <mxCell id="LyZk9FM3aCZYYO_AvAmw-41" value="Visiteur / Participant" style="swimlane;whiteSpace=wrap;movable=1;resizable=1;rotatable=1;deletable=1;editable=1;locked=0;connectable=1;" vertex="1" parent="1">
          <mxGeometry x="135" y="58" width="262.5" height="500" as="geometry" />
        </mxCell>
        <mxCell id="LyZk9FM3aCZYYO_AvAmw-42" value="" style="ellipse;shape=startState;fillColor=#000000;strokeColor=#000000;" vertex="1" parent="LyZk9FM3aCZYYO_AvAmw-41">
          <mxGeometry x="100" y="28" width="30" height="30" as="geometry" />
        </mxCell>
        <mxCell id="LyZk9FM3aCZYYO_AvAmw-43" value="" style="edgeStyle=elbowEdgeStyle;elbow=horizontal;verticalAlign=bottom;endArrow=open;endSize=8;strokeColor=#000000;endFill=1;rounded=0" edge="1" parent="LyZk9FM3aCZYYO_AvAmw-41" source="LyZk9FM3aCZYYO_AvAmw-42">
          <mxGeometry x="100" y="40" as="geometry">
            <mxPoint x="115.5" y="98" as="targetPoint" />
          </mxGeometry>
        </mxCell>
        <mxCell id="LyZk9FM3aCZYYO_AvAmw-44" style="edgeStyle=orthogonalEdgeStyle;rounded=0;orthogonalLoop=1;jettySize=auto;html=1;" edge="1" parent="LyZk9FM3aCZYYO_AvAmw-41" source="LyZk9FM3aCZYYO_AvAmw-45">
          <mxGeometry relative="1" as="geometry">
            <mxPoint x="364.41656494140625" y="119" as="targetPoint" />
          </mxGeometry>
        </mxCell>
        <mxCell id="LyZk9FM3aCZYYO_AvAmw-45" value="" style="rounded=1;whiteSpace=wrap;html=1;" vertex="1" parent="LyZk9FM3aCZYYO_AvAmw-41">
          <mxGeometry x="55" y="100" width="120" height="38" as="geometry" />
        </mxCell>
        <mxCell id="LyZk9FM3aCZYYO_AvAmw-46" value="&lt;b&gt;Demande d&#39;annulation&lt;/b&gt;" style="text;html=1;align=center;verticalAlign=middle;whiteSpace=wrap;rounded=0;" vertex="1" parent="LyZk9FM3aCZYYO_AvAmw-41">
          <mxGeometry x="85" y="104" width="60" height="30" as="geometry" />
        </mxCell>
        <mxCell id="LyZk9FM3aCZYYO_AvAmw-53" value="Système" style="swimlane;whiteSpace=wrap;movable=1;resizable=1;rotatable=1;deletable=1;editable=1;locked=0;connectable=1;" vertex="1" parent="1">
          <mxGeometry x="397.5" y="58" width="338" height="501" as="geometry" />
        </mxCell>
        <mxCell id="LyZk9FM3aCZYYO_AvAmw-56" value="" style="rounded=1;whiteSpace=wrap;html=1;" vertex="1" parent="LyZk9FM3aCZYYO_AvAmw-53">
          <mxGeometry x="98.5" y="99" width="138.5" height="38" as="geometry" />
        </mxCell>
        <mxCell id="LyZk9FM3aCZYYO_AvAmw-57" style="edgeStyle=orthogonalEdgeStyle;rounded=0;orthogonalLoop=1;jettySize=auto;html=1;" edge="1" parent="LyZk9FM3aCZYYO_AvAmw-53" source="LyZk9FM3aCZYYO_AvAmw-58">
          <mxGeometry relative="1" as="geometry">
            <mxPoint x="165.75" y="168.00521087646484" as="targetPoint" />
          </mxGeometry>
        </mxCell>
        <mxCell id="LyZk9FM3aCZYYO_AvAmw-58" value="&lt;b&gt;Vérifier les condition d&#39;annulation&lt;/b&gt;" style="text;html=1;align=center;verticalAlign=middle;whiteSpace=wrap;rounded=0;" vertex="1" parent="LyZk9FM3aCZYYO_AvAmw-53">
          <mxGeometry x="103.5" y="104" width="124.5" height="30" as="geometry" />
        </mxCell>
        <mxCell id="LyZk9FM3aCZYYO_AvAmw-59" style="edgeStyle=orthogonalEdgeStyle;rounded=0;orthogonalLoop=1;jettySize=auto;html=1;entryX=0.426;entryY=-0.027;entryDx=0;entryDy=0;entryPerimeter=0;" edge="1" parent="LyZk9FM3aCZYYO_AvAmw-53" source="LyZk9FM3aCZYYO_AvAmw-60" target="LyZk9FM3aCZYYO_AvAmw-67">
          <mxGeometry relative="1" as="geometry">
            <mxPoint x="71.083251953125" y="219.67186737060547" as="targetPoint" />
          </mxGeometry>
        </mxCell>
        <mxCell id="LyZk9FM3aCZYYO_AvAmw-60" value="" style="rhombus;whiteSpace=wrap;html=1;" vertex="1" parent="LyZk9FM3aCZYYO_AvAmw-53">
          <mxGeometry x="142.88" y="169" width="45.75" height="43" as="geometry" />
        </mxCell>
        <mxCell id="LyZk9FM3aCZYYO_AvAmw-61" value="" style="rounded=1;whiteSpace=wrap;html=1;" vertex="1" parent="LyZk9FM3aCZYYO_AvAmw-53">
          <mxGeometry x="194" y="220" width="108.5" height="31" as="geometry" />
        </mxCell>
        <mxCell id="LyZk9FM3aCZYYO_AvAmw-62" style="edgeStyle=orthogonalEdgeStyle;rounded=0;orthogonalLoop=1;jettySize=auto;html=1;entryX=0.572;entryY=0.013;entryDx=0;entryDy=0;entryPerimeter=0;" edge="1" parent="LyZk9FM3aCZYYO_AvAmw-53" source="LyZk9FM3aCZYYO_AvAmw-60" target="LyZk9FM3aCZYYO_AvAmw-61">
          <mxGeometry relative="1" as="geometry" />
        </mxCell>
        <mxCell id="LyZk9FM3aCZYYO_AvAmw-64" value="&lt;b&gt;Annulation rejeté&lt;/b&gt;" style="text;html=1;align=center;verticalAlign=middle;whiteSpace=wrap;rounded=0;" vertex="1" parent="LyZk9FM3aCZYYO_AvAmw-53">
          <mxGeometry x="194" y="219.5" width="110" height="30" as="geometry" />
        </mxCell>
        <mxCell id="LyZk9FM3aCZYYO_AvAmw-65" value="[elligible]" style="text;html=1;align=center;verticalAlign=middle;whiteSpace=wrap;rounded=0;" vertex="1" parent="LyZk9FM3aCZYYO_AvAmw-53">
          <mxGeometry x="18" y="144" width="124" height="30" as="geometry" />
        </mxCell>
        <mxCell id="LyZk9FM3aCZYYO_AvAmw-66" value="[non elligible" style="text;html=1;align=center;verticalAlign=middle;whiteSpace=wrap;rounded=0;" vertex="1" parent="LyZk9FM3aCZYYO_AvAmw-53">
          <mxGeometry x="188.63" y="144" width="124" height="30" as="geometry" />
        </mxCell>
        <mxCell id="LyZk9FM3aCZYYO_AvAmw-67" value="" style="rounded=1;whiteSpace=wrap;html=1;" vertex="1" parent="LyZk9FM3aCZYYO_AvAmw-53">
          <mxGeometry x="15" y="289" width="120" height="37" as="geometry" />
        </mxCell>
        <mxCell id="LyZk9FM3aCZYYO_AvAmw-68" value="&lt;b&gt;Demande de remboursement&lt;/b&gt;" style="text;html=1;align=center;verticalAlign=middle;whiteSpace=wrap;rounded=0;" vertex="1" parent="LyZk9FM3aCZYYO_AvAmw-53">
          <mxGeometry x="20" y="293" width="110" height="30" as="geometry" />
        </mxCell>
        <mxCell id="LyZk9FM3aCZYYO_AvAmw-123" value="" style="rounded=1;whiteSpace=wrap;html=1;" vertex="1" parent="LyZk9FM3aCZYYO_AvAmw-53">
          <mxGeometry x="16.879999999999995" y="357" width="120" height="35" as="geometry" />
        </mxCell>
        <mxCell id="LyZk9FM3aCZYYO_AvAmw-125" style="edgeStyle=orthogonalEdgeStyle;rounded=0;orthogonalLoop=1;jettySize=auto;html=1;" edge="1" parent="LyZk9FM3aCZYYO_AvAmw-53" source="LyZk9FM3aCZYYO_AvAmw-124">
          <mxGeometry relative="1" as="geometry">
            <mxPoint x="79.88000000000011" y="415.67183685302734" as="targetPoint" />
          </mxGeometry>
        </mxCell>
        <mxCell id="LyZk9FM3aCZYYO_AvAmw-124" value="&lt;b&gt;Annulation Effectué&lt;/b&gt;" style="text;html=1;align=center;verticalAlign=middle;whiteSpace=wrap;rounded=0;" vertex="1" parent="LyZk9FM3aCZYYO_AvAmw-53">
          <mxGeometry x="24.879999999999995" y="360" width="110" height="30" as="geometry" />
        </mxCell>
        <mxCell id="LyZk9FM3aCZYYO_AvAmw-126" value="" style="ellipse;html=1;shape=endState;fillColor=#000000;strokeColor=#000000;" vertex="1" parent="LyZk9FM3aCZYYO_AvAmw-53">
          <mxGeometry x="64.88" y="416.0018673706055" width="30" height="30" as="geometry" />
        </mxCell>
        <mxCell id="LyZk9FM3aCZYYO_AvAmw-89" value="SGBD" style="swimlane;whiteSpace=wrap;movable=1;resizable=1;rotatable=1;deletable=1;editable=1;locked=0;connectable=1;" vertex="1" parent="1">
          <mxGeometry x="735.5" y="58" width="310.63" height="500" as="geometry" />
        </mxCell>
        <mxCell id="LyZk9FM3aCZYYO_AvAmw-91" value="" style="rounded=1;whiteSpace=wrap;html=1;" vertex="1" parent="LyZk9FM3aCZYYO_AvAmw-89">
          <mxGeometry x="81.5" y="65" width="172.5" height="39" as="geometry" />
        </mxCell>
        <mxCell id="LyZk9FM3aCZYYO_AvAmw-92" value="&lt;b&gt;Effectuer le remboursement&lt;/b&gt;" style="text;html=1;align=center;verticalAlign=middle;whiteSpace=wrap;rounded=0;" vertex="1" parent="LyZk9FM3aCZYYO_AvAmw-89">
          <mxGeometry x="83" y="67" width="168.5" height="30" as="geometry" />
        </mxCell>
        <mxCell id="LyZk9FM3aCZYYO_AvAmw-103" style="edgeStyle=orthogonalEdgeStyle;rounded=0;orthogonalLoop=1;jettySize=auto;html=1;entryX=0;entryY=0.25;entryDx=0;entryDy=0;" edge="1" parent="1" source="LyZk9FM3aCZYYO_AvAmw-67" target="LyZk9FM3aCZYYO_AvAmw-92">
          <mxGeometry relative="1" as="geometry">
            <Array as="points">
              <mxPoint x="745" y="377" />
              <mxPoint x="745" y="133" />
            </Array>
          </mxGeometry>
        </mxCell>
        <mxCell id="LyZk9FM3aCZYYO_AvAmw-113" value="" style="ellipse;html=1;shape=endState;fillColor=#000000;strokeColor=#000000;" vertex="1" parent="1">
          <mxGeometry x="630.75" y="315.67186737060547" width="30" height="30" as="geometry" />
        </mxCell>
        <mxCell id="LyZk9FM3aCZYYO_AvAmw-112" style="edgeStyle=orthogonalEdgeStyle;rounded=0;orthogonalLoop=1;jettySize=auto;html=1;" edge="1" parent="1" source="LyZk9FM3aCZYYO_AvAmw-61" target="LyZk9FM3aCZYYO_AvAmw-113">
          <mxGeometry relative="1" as="geometry">
            <mxPoint x="645.75" y="330.67186737060547" as="targetPoint" />
          </mxGeometry>
        </mxCell>
        <mxCell id="LyZk9FM3aCZYYO_AvAmw-127" style="edgeStyle=orthogonalEdgeStyle;rounded=0;orthogonalLoop=1;jettySize=auto;html=1;entryX=0.5;entryY=0;entryDx=0;entryDy=0;" edge="1" parent="1" source="LyZk9FM3aCZYYO_AvAmw-91" target="LyZk9FM3aCZYYO_AvAmw-124">
          <mxGeometry relative="1" as="geometry">
            <Array as="points">
              <mxPoint x="866" y="395" />
              <mxPoint x="477" y="395" />
            </Array>
          </mxGeometry>
        </mxCell>
        <mxCell id="LyZk9FM3aCZYYO_AvAmw-128" value="&lt;font style=&quot;font-size: 18px;&quot;&gt;&lt;b style=&quot;&quot;&gt;CAS D&#39;ANNULATION D&#39;UNE OFFRE&lt;/b&gt;&lt;/font&gt;" style="text;html=1;align=center;verticalAlign=middle;whiteSpace=wrap;rounded=0;" vertex="1" parent="1">
          <mxGeometry x="397.5" y="16" width="421.5" height="36" as="geometry" />
        </mxCell>
      </root>
    </mxGraphModel>
  </diagram>
</mxfile>
